<svg width="27" height="28" viewBox="0 0 27 28" fill="none" xmlns="http://www.w3.org/2000/svg">
<path d="M2.1875 25.1379H3.79167L19.9427 8.91236L18.3385 7.3008L2.1875 23.5263V25.1379ZM24.5729 7.33743L19.9063 2.64924L21.4375 1.11093C21.8507 0.695831 22.3611 0.488281 22.9688 0.488281C23.5764 0.488281 24.0868 0.695831 24.5 1.11093L26.1042 2.72249C26.5174 3.13759 26.724 3.65036 26.724 4.2608C26.724 4.87125 26.5174 5.38402 26.1042 5.79912L24.5729 7.33743ZM23.0417 8.87574L4.66667 27.3355H0V22.6473L18.375 4.18755L23.0417 8.87574ZM19.1406 8.10658L18.3385 7.3008L19.9427 8.91236L19.1406 8.10658Z" fill="#00E595"/>
</svg>
