<svg width="20" height="14" viewBox="0 0 20 14" fill="none" xmlns="http://www.w3.org/2000/svg">
<path d="M0.791626 13.6665V11.7082C0.791626 11.2221 0.916626 10.7811 1.16663 10.3853C1.41663 9.98942 1.76385 9.69428 2.20829 9.49984C3.22218 9.05539 4.13538 8.73595 4.94788 8.5415C5.76038 8.34706 6.59718 8.24984 7.45829 8.24984C8.3194 8.24984 9.15274 8.34706 9.95829 8.5415C10.7638 8.73595 11.6736 9.05539 12.6875 9.49984C13.1319 9.69428 13.4826 9.98942 13.7395 10.3853C13.9965 10.7811 14.125 11.2221 14.125 11.7082V13.6665H0.791626ZM15.375 13.6665V11.7082C15.375 10.8332 15.1527 10.1144 14.7083 9.55192C14.2638 8.98942 13.6805 8.53456 12.9583 8.18734C13.9166 8.29845 14.8194 8.46164 15.6666 8.67692C16.5138 8.8922 17.2013 9.13873 17.7291 9.4165C18.1875 9.68039 18.5486 10.0068 18.8125 10.3957C19.0763 10.7846 19.2083 11.2221 19.2083 11.7082V13.6665H15.375ZM7.45829 6.979C6.54163 6.979 5.79163 6.68734 5.20829 6.104C4.62496 5.52067 4.33329 4.77067 4.33329 3.854C4.33329 2.93734 4.62496 2.18734 5.20829 1.604C5.79163 1.02067 6.54163 0.729004 7.45829 0.729004C8.37496 0.729004 9.12496 1.02067 9.70829 1.604C10.2916 2.18734 10.5833 2.93734 10.5833 3.854C10.5833 4.77067 10.2916 5.52067 9.70829 6.104C9.12496 6.68734 8.37496 6.979 7.45829 6.979ZM14.9583 3.854C14.9583 4.77067 14.6666 5.52067 14.0833 6.104C13.5 6.68734 12.75 6.979 11.8333 6.979C11.6805 6.979 11.5104 6.96859 11.3229 6.94775C11.1354 6.92692 10.9652 6.88873 10.8125 6.83317C11.1458 6.48595 11.3993 6.05887 11.5729 5.55192C11.7465 5.04498 11.8333 4.479 11.8333 3.854C11.8333 3.229 11.7465 2.67692 11.5729 2.19775C11.3993 1.71859 11.1458 1.27762 10.8125 0.874837C10.9652 0.833171 11.1354 0.798448 11.3229 0.770671C11.5104 0.742893 11.6805 0.729004 11.8333 0.729004C12.75 0.729004 13.5 1.02067 14.0833 1.604C14.6666 2.18734 14.9583 2.93734 14.9583 3.854ZM2.04163 12.4165H12.875V11.7082C12.875 11.4859 12.809 11.2707 12.677 11.0623C12.5451 10.854 12.3819 10.7082 12.1875 10.6248C11.1875 10.1804 10.3472 9.88178 9.66663 9.729C8.98607 9.57623 8.24996 9.49984 7.45829 9.49984C6.66663 9.49984 5.92704 9.57623 5.23954 9.729C4.55204 9.88178 3.70829 10.1804 2.70829 10.6248C2.51385 10.7082 2.35413 10.854 2.22913 11.0623C2.10413 11.2707 2.04163 11.4859 2.04163 11.7082V12.4165ZM7.45829 5.729C7.99996 5.729 8.44788 5.55192 8.80204 5.19775C9.15621 4.84359 9.33329 4.39567 9.33329 3.854C9.33329 3.31234 9.15621 2.86442 8.80204 2.51025C8.44788 2.15609 7.99996 1.979 7.45829 1.979C6.91663 1.979 6.46871 2.15609 6.11454 2.51025C5.76038 2.86442 5.58329 3.31234 5.58329 3.854C5.58329 4.39567 5.76038 4.84359 6.11454 5.19775C6.46871 5.55192 6.91663 5.729 7.45829 5.729Z" fill="#00057D"/>
</svg>
