<svg width="25" height="25" viewBox="0 0 25 25" fill="none" xmlns="http://www.w3.org/2000/svg">
<path d="M20.7292 21.8491L13.8802 15.0002C13.3594 15.4516 12.7521 15.8031 12.0584 16.0548C11.3646 16.3066 10.6264 16.4325 9.84375 16.4325C7.96594 16.4325 6.37669 15.7814 5.07602 14.4793C3.77534 13.1772 3.125 11.6061 3.125 9.76579C3.125 7.92551 3.77604 6.35433 5.07812 5.05225C6.38021 3.75016 7.95573 3.09912 9.80469 3.09912C11.6536 3.09912 13.2248 3.75016 14.5182 5.05225C15.8116 6.35433 16.4583 7.92681 16.4583 9.76969C16.4583 10.5136 16.3368 11.2328 16.0938 11.9272C15.8507 12.6217 15.4861 13.2727 15 13.8804L21.875 20.7033L20.7292 21.8491ZM9.81771 14.87C11.2283 14.87 12.4273 14.3708 13.4147 13.3726C14.4021 12.3743 14.8958 11.172 14.8958 9.76579C14.8958 8.35954 14.4021 7.15728 13.4147 6.15902C12.4273 5.16075 11.2283 4.66162 9.81771 4.66162C8.39266 4.66162 7.18135 5.16075 6.1838 6.15902C5.18627 7.15728 4.6875 8.35954 4.6875 9.76579C4.6875 11.172 5.18627 12.3743 6.1838 13.3726C7.18135 14.3708 8.39266 14.87 9.81771 14.87Z" fill="#00057D"/>
</svg>
